<svg width="24" height="24" fill="none" xmlns="http://www.w3.org/2000/svg"><path d="M8.5 12H4a8.07 8.07 0 014.03-7l2.233 3.938A3.53 3.53 0 008.5 12zM15.5 12H20a8.07 8.07 0 00-4.03-7l-2.233 3.938A3.53 3.53 0 0115.5 12zM13.855 14.968A3.483 3.483 0 0112 15.5a3.484 3.484 0 01-1.855-.532l-2.386 3.817A7.962 7.962 0 0011.991 20h.018a7.962 7.962 0 004.232-1.215l-2.386-3.817zM14 12a2 2 0 11-4 0 2 2 0 014 0z" fill="#000"/><path fill-rule="evenodd" clip-rule="evenodd" d="M3 1a3 3 0 00-3 3v17a3 3 0 003 3h18a3 3 0 003-3V4a3 3 0 00-3-3H3zM2 4a1 1 0 011-1h18a1 1 0 011 1v17a1 1 0 01-1 1H3a1 1 0 01-1-1V4z" fill="#000"/></svg>