<svg width="24" height="24" fill="none" xmlns="http://www.w3.org/2000/svg"><path fill-rule="evenodd" clip-rule="evenodd" d="M20.8 3H3.2C2.5 3 2 3.5 2 4.2v2.6C2 7.5 2.5 8 3.2 8h17.6c.7 0 1.2-.5 1.2-1.2V4.2c0-.7-.5-1.2-1.2-1.2zm-1.3 3.5c-.6 0-1-.4-1-1s.4-1 1-1 1 .4 1 1-.4 1-1 1zM20.8 10H3.2c-.7 0-1.2.5-1.2 1.2v2.6c0 .7.5 1.2 1.2 1.2h17.6c.7 0 1.2-.5 1.2-1.2v-2.6c0-.7-.5-1.2-1.2-1.2zm-1.3 3.5c-.6 0-1-.4-1-1s.4-1 1-1 1 .4 1 1-.4 1-1 1zM3.2 17h17.6c.7 0 1.2.5 1.2 1.2v2.6c0 .7-.5 1.2-1.2 1.2H3.2c-.7 0-1.2-.5-1.2-1.2v-2.6c0-.7.5-1.2 1.2-1.2zm15.3 2.5c0 .6.4 1 1 1s1-.4 1-1-.4-1-1-1-1 .4-1 1z" fill="#000"/></svg>