<svg width="24" height="24" fill="none" xmlns="http://www.w3.org/2000/svg"><path d="M11.985 14a1.998 1.998 0 001.997-2c0-1.105-.894-2-1.997-2a1.999 1.999 0 00-1.997 2c0 1.105.894 2 1.997 2z" fill="#000"/><path fill-rule="evenodd" clip-rule="evenodd" d="M11.158 1c-.688 0-1.287.468-1.454 1.136l-.599 2.4A7.975 7.975 0 007.01 5.74l-2.273-.65a1.497 1.497 0 00-1.709.691l-.827 1.436a1.502 1.502 0 00.256 1.828l1.654 1.602a8.063 8.063 0 000 2.704l-1.654 1.602a1.502 1.502 0 00-.256 1.828l.827 1.436a1.497 1.497 0 001.71.692l2.272-.651c.628.502 1.333.91 2.095 1.205l.6 2.4A1.498 1.498 0 0011.157 23h1.655c.687 0 1.286-.468 1.453-1.136l.599-2.4a7.977 7.977 0 002.103-1.211l2.295.657c.66.19 1.365-.096 1.709-.692l.827-1.436a1.502 1.502 0 00-.256-1.828l-1.68-1.627a8.065 8.065 0 00-.004-2.682l1.684-1.63c.494-.48.6-1.233.256-1.83l-.827-1.435a1.497 1.497 0 00-1.71-.692l-2.323.666a7.974 7.974 0 00-2.074-1.188l-.6-2.4A1.498 1.498 0 0012.814 1h-1.655zm5.82 11c0 2.761-2.236 5-4.993 5a4.996 4.996 0 01-4.992-5c0-2.761 2.235-5 4.992-5a4.996 4.996 0 014.993 5z" fill="#000"/></svg>